<svg xmlns="http://www.w3.org/2000/svg" class="cogs" width="300" height="310.971"><path d="M272.529 184.034c-15.609-27.033-6.22-61.67 20.963-77.418l-29.237-50.637a55.982 55.982 0 01-28.428 7.707c-31.244 0-56.567-25.49-56.567-56.94h-58.464a55.991 55.991 0 01-7.54 28.54C97.649 62.319 62.956 71.513 35.737 55.84L6.508 106.476a55.991 55.991 0 0120.88 20.768c15.58 26.987 6.247 61.569-20.833 77.335l29.237 50.636a55.982 55.982 0 0128.297-7.622c31.142 0 56.4 25.332 56.558 56.632h58.464a56.075 56.075 0 017.54-28.242c15.58-26.987 50.19-36.2 77.39-20.628l29.237-50.637a56.075 56.075 0 01-20.75-20.693zm-122.534 31.691a60.24 60.24 0 110-120.47 60.24 60.24 0 010 120.47z" fill="#616161"/></svg>